0
SECTION
2
HEADER
9
$INSUNITS
70
4
9
$ACADVER
1
AC1014
9
$HANDSEED
5
FFFF
0
ENDSEC
0
SECTION
2
TABLES
0
TABLE
2
VPORT
5
8
100
AcDbSymbolTable
0
ENDTAB
0
TABLE
2
LTYPE
5
5
100
AcDbSymbolTable
0
LTYPE
5
14
100
AcDbSymbolTableRecord
100
AcDbLinetypeTableRecord
2
BYBLOCK
70
0
0
LTYPE
5
15
100
AcDbSymbolTableRecord
100
AcDbLinetypeTableRecord
2
BYLAYER
70
0
0
ENDTAB
0
TABLE
2
LAYER
5
2
100
AcDbSymbolTable
70
2
0
LAYER
5
50
100
AcDbSymbolTableRecord
100
AcDbLayerTableRecord
2
0
70
0
6
CONTINUOUS
0
ENDTAB
0
TABLE
2
STYLE
5
3
100
AcDbSymbolTable
70
1
0
STYLE
5
11
100
AcDbSymbolTableRecord
100
AcDbTextStyleTableRecord
2
STANDARD
70
0
0
ENDTAB
0
TABLE
2
VIEW
5
6
100
AcDbSymbolTable
70
0
0
ENDTAB
0
TABLE
2
UCS
5
7
100
AcDbSymbolTable
70
0
0
ENDTAB
0
TABLE
2
APPID
5
9
100
AcDbSymbolTable
70
2
0
APPID
5
12
100
AcDbSymbolTableRecord
100
AcDbRegAppTableRecord
2
ACAD
70
0
0
ENDTAB
0
TABLE
2
DIMSTYLE
5
A
100
AcDbSymbolTable
70
1
0
ENDTAB
0
TABLE
2
BLOCK_RECORD
5
1
100
AcDbSymbolTable
70
1
0
BLOCK_RECORD
5
1F
100
AcDbSymbolTableRecord
100
AcDbBlockTableRecord
2
*MODEL_SPACE
0
BLOCK_RECORD
5
1B
100
AcDbSymbolTableRecord
100
AcDbBlockTableRecord
2
*PAPER_SPACE
0
ENDTAB
0
ENDSEC
0
SECTION
2
BLOCKS
0
BLOCK
5
20
100
AcDbEntity
100
AcDbBlockBegin
2
*MODEL_SPACE
0
ENDBLK
5
21
100
AcDbEntity
100
AcDbBlockEnd
0
BLOCK
5
1C
100
AcDbEntity
100
AcDbBlockBegin
2
*PAPER_SPACE
0
ENDBLK
5
1D
100
AcDbEntity
100
AcDbBlockEnd
0
ENDSEC
0
SECTION
2
ENTITIES
0
LWPOLYLINE
5
100
100
AcDbEntity
8
0
100
AcDbPolyline
90
18
70
1
43
0.0
10
5.000000074505806
20
90.000001490116119
10
5.000000074505806
20
41.000000894069672
10
9.7071069301981598
20
36.292894038377312
42
-0.19891236737965765
10
10.000000149011612
20
35.585787257190766
10
10.000000149011612
20
15.00000037252903
10
20.000000298023224
20
5.0000002235174179
10
50.000000745058159
20
5.000000223517449
10
50.00000074505806
20
19.585786928306245
42
-0.19891234801621785
10
50.292893911187939
20
20.292893656809213
10
54.707105542801678
20
24.707105946192005
42
-0.19891238674309794
10
55.414212376671799
20
24.999999217689037
10
135.00000201165676
20
24.999999217689037
10
140.00000208616257
20
30.000000596046448
10
140.00000208616257
20
90.000001490116119
10
135.00000201165676
20
95.000001564621925
10
35.000000521540642
20
95.000001564621925
10
30.292893665848297
20
90.292894708929566
42
-0.19891236737965201
10
29.58578688466174
20
90.000001490116119
0
LWPOLYLINE
5
101
100
AcDbEntity
8
0
100
AcDbPolyline
90
4
70
1
43
0.0
10
10.000000149011612
20
90.000001490116119
10
10.000000149011612
20
65.00000111758709
10
25.00000037252903
20
90.000001490116119
10
25.00000037252903
20
65.00000111758709
0
LINE
5
102
100
AcDbEntity
8
0
100
AcDbLine
10
10.000000149011612
20
65.00000111758709
30
0
11
25.00000037252903
21
65.00000111758709
31
0
0
LWPOLYLINE
5
103
100
AcDbEntity
8
0
100
AcDbPolyline
90
4
70
1
43
0.0
10
5.000000074505806
20
60.000001043081284
10
17.100000074505807
20
60.000001043081284
10
17.100000074505807
20
53.900001043081282
10
5.000000074505806
20
53.900001043081282
0
LWPOLYLINE
5
104
100
AcDbEntity
8
0
100
AcDbPolyline
90
4
70
1
43
0.0
10
17.100000074505807
20
47.800001043081281
10
5.000000074505806
20
47.800001043081281
10
5.000000074505806
20
41.700001043081272
10
17.100000074505807
20
41.700001043081272
0
CIRCLE
5
105
100
AcDbEntity
8
0
100
AcDbCircle
10
47.000000700354576
20
70.000001192092896
30
0
40
10.999999999999996
210
0
220
0
230
1
0
CIRCLE
5
106
100
AcDbEntity
8
0
100
AcDbCircle
10
47.000000700354576
20
45.000000819563866
30
0
40
10.999999999999996
210
0
220
0
230
1
0
CIRCLE
5
107
100
AcDbEntity
8
0
100
AcDbCircle
10
72.000001072883606
20
80.000001341104507
30
0
40
10.999999999999996
210
0
220
0
230
1
0
CIRCLE
5
108
100
AcDbEntity
8
0
100
AcDbCircle
10
72.000001072883606
20
55.000000968575478
30
0
40
10.999999999999996
210
0
220
0
230
1
0
CIRCLE
5
109
100
AcDbEntity
8
0
100
AcDbCircle
10
97.000001445412636
20
75.000001266598701
30
0
40
10.999999999999996
210
0
220
0
230
1
0
CIRCLE
5
110
100
AcDbEntity
8
0
100
AcDbCircle
10
122.00000181794167
20
68.000001162290573
30
0
40
10.999999999999996
210
0
220
0
230
1
0
CIRCLE
5
111
100
AcDbEntity
8
0
100
AcDbCircle
10
97.000001445412636
20
49.00000087916851
30
0
40
10.999999999999996
210
0
220
0
230
1
0
CIRCLE
5
112
100
AcDbEntity
8
0
100
AcDbCircle
10
122.00000181794167
20
43.000000789761543
30
0
40
10.999999999999996
210
0
220
0
230
1
0
CIRCLE
5
113
100
AcDbEntity
8
0
100
AcDbCircle
10
30.000000447034836
20
20.000000447034836
30
0
40
10.999999999999996
210
0
220
0
230
1
0
LINE
5
114
100
AcDbEntity
8
0
100
AcDbLine
10
5.000000074505806
20
60.000001043081284
30
0
11
17.100000074505807
21
53.900001043081282
31
0
0
LINE
5
115
100
AcDbEntity
8
0
100
AcDbLine
10
17.100000074505807
20
60.000001043081284
30
0
11
5.000000074505806
21
53.900001043081282
31
0
0
LINE
5
116
100
AcDbEntity
8
0
100
AcDbLine
10
5.000000074505806
20
47.800001043081281
30
0
11
17.100000074505807
21
41.700001043081272
31
0
0
LINE
5
117
100
AcDbEntity
8
0
100
AcDbLine
10
17.100000074505807
20
47.800001043081281
30
0
11
5.000000074505806
21
41.700001043081272
31
0
0
CIRCLE
5
118
100
AcDbEntity
8
0
100
AcDbCircle
10
36.000000536441803
20
89.000001475214958
30
0
40
2.5
210
0
220
0
230
1
0
CIRCLE
5
119
100
AcDbEntity
8
0
100
AcDbCircle
10
134.0000019967556
20
89.000001475214958
30
0
40
2.5
210
0
220
0
230
1
0
CIRCLE
5
120
100
AcDbEntity
8
0
100
AcDbCircle
10
134.0000019967556
20
31.000000610947609
30
0
40
2.5
210
0
220
0
230
1
0
CIRCLE
5
121
100
AcDbEntity
8
0
100
AcDbCircle
10
60.000000894069672
20
31.000000610947609
30
0
40
2.5
210
0
220
0
230
1
0
CIRCLE
5
122
100
AcDbEntity
8
0
100
AcDbCircle
10
45.000000670552254
20
10.000000447034836
30
0
40
2.5
210
0
220
0
230
1
0
CIRCLE
5
123
100
AcDbEntity
8
0
100
AcDbCircle
10
15.000000223517418
20
30.000000447034836
30
0
40
2.5
210
0
220
0
230
1
0
LINE
5
124
100
AcDbEntity
8
0
100
AcDbLine
10
109.49999755248427
20
84.99999787658453
30
0
11
114.49999744072556
21
91.999997720122337
31
0
0
LWPOLYLINE
5
125
100
AcDbEntity
8
0
100
AcDbPolyline
90
4
70
1
43
0.0
10
114.49999744072556
20
91.999997720122337
10
109.49999755248427
20
91.999997720122337
10
109.49999755248427
20
84.99999787658453
10
114.49999744072556
20
84.99999787658453
0
LINE
5
126
100
AcDbEntity
8
0
100
AcDbLine
10
109.49999755248427
20
91.999997720122337
30
0
11
114.49999744072556
21
84.99999787658453
31
0
0
LWPOLYLINE
5
127
100
AcDbEntity
8
0
100
AcDbPolyline
90
4
70
1
43
0.0
10
116.50000173598528
20
92.000001519918442
10
116.50000173598528
20
85.000001415610313
10
121.50000181049109
20
85.000001415610313
10
121.50000181049109
20
92.000001519918442
0
LINE
5
128
100
AcDbEntity
8
0
100
AcDbLine
10
121.50000181049109
20
85.000001415610313
30
0
11
116.50000173598528
21
92.000001519918442
31
0
0
LINE
5
129
100
AcDbEntity
8
0
100
AcDbLine
10
116.50000173598528
20
85.000001415610313
30
0
11
121.50000181049109
21
92.000001519918442
31
0
0
LWPOLYLINE
5
130
100
AcDbEntity
8
0
100
AcDbPolyline
90
4
70
1
43
0.0
10
123.50000184029341
20
92.000001519918442
10
123.50000184029341
20
85.000001415610313
10
128.50000191479921
20
85.000001415610313
10
128.50000191479921
20
92.000001519918442
0
LINE
5
131
100
AcDbEntity
8
0
100
AcDbLine
10
123.50000184029341
20
92.000001519918442
30
0
11
128.50000191479921
21
85.000001415610313
31
0
0
LINE
5
132
100
AcDbEntity
8
0
100
AcDbLine
10
123.50000184029341
20
85.000001415610313
30
0
11
128.50000191479921
21
92.000001519918442
31
0
0
LINE
5
133
100
AcDbEntity
8
0
100
AcDbLine
10
53.900000700354582
20
76.900001192092901
30
0
11
40.100000700354585
21
76.900001192092901
31
0
0
LWPOLYLINE
5
134
100
AcDbEntity
8
0
100
AcDbPolyline
90
4
70
1
43
0.0
10
53.900000700354582
20
76.900001192092901
10
53.900000700354582
20
63.100001192092904
10
40.100000700354585
20
76.900001192092901
10
40.100000700354585
20
63.100001192092904
0
LINE
5
135
100
AcDbEntity
8
0
100
AcDbLine
10
53.900000700354582
20
63.100001192092904
30
0
11
40.100000700354585
21
63.100001192092904
31
0
0
LWPOLYLINE
5
136
100
AcDbEntity
8
0
100
AcDbPolyline
90
4
70
1
43
0.0
10
65.100000700354585
20
73.100001192092904
10
65.100000700354585
20
86.900001192092901
10
78.900000700354582
20
73.100001192092904
10
78.900000700354582
20
86.900001192092901
0
LINE
5
137
100
AcDbEntity
8
0
100
AcDbLine
10
78.900000700354582
20
86.900001192092901
30
0
11
65.100000700354585
21
86.900001192092901
31
0
0
LINE
5
138
100
AcDbEntity
8
0
100
AcDbLine
10
78.900000700354582
20
73.100001192092904
30
0
11
65.100000700354585
21
73.100001192092904
31
0
0
LWPOLYLINE
5
139
100
AcDbEntity
8
0
100
AcDbPolyline
90
4
70
1
43
0.0
10
40.100000700354585
20
63.100001192092904
10
40.100000700354585
20
76.900001192092901
10
53.900000700354582
20
63.100001192092904
10
53.900000700354582
20
76.900001192092901
0
LINE
5
140
100
AcDbEntity
8
0
100
AcDbLine
10
53.900000700354582
20
63.100001192092904
30
0
11
40.100000700354585
21
63.100001192092904
31
0
0
LWPOLYLINE
5
141
100
AcDbEntity
8
0
100
AcDbPolyline
90
3
70
1
43
0.0
10
53.900000700354582
20
38.100001192092904
10
40.100000700354585
20
38.100001192092904
10
40.100000700354585
20
51.900001192092901
0
LINE
5
142
100
AcDbEntity
8
0
100
AcDbLine
10
53.900000700354582
20
51.900001192092901
30
0
11
53.900000700354582
21
38.100001192092904
31
0
0
LWPOLYLINE
5
143
100
AcDbEntity
8
0
100
AcDbPolyline
90
4
70
1
43
0.0
10
40.100000700354585
20
38.100001192092904
10
40.100000700354585
20
51.900001192092901
10
53.900000700354582
20
38.100001192092904
10
53.900000700354582
20
51.900001192092901
0
LINE
5
144
100
AcDbEntity
8
0
100
AcDbLine
10
53.900000700354582
20
51.900001192092901
30
0
11
40.100000700354585
21
51.900001192092901
31
0
0
LINE
5
145
100
AcDbEntity
8
0
100
AcDbLine
10
40.100000700354585
20
38.100001192092904
30
0
11
53.900000700354582
21
51.900001192092901
31
0
0
LINE
5
146
100
AcDbEntity
8
0
100
AcDbLine
10
53.900000700354582
20
38.100001192092904
30
0
11
40.100000700354585
21
38.100001192092904
31
0
0
LWPOLYLINE
5
147
100
AcDbEntity
8
0
100
AcDbPolyline
90
3
70
1
43
0.0
10
78.900000700354582
20
48.100001192092904
10
65.100000700354585
20
48.100001192092904
10
65.100000700354585
20
61.900001192092901
0
LINE
5
148
100
AcDbEntity
8
0
100
AcDbLine
10
78.900000700354582
20
61.900001192092901
30
0
11
78.900000700354582
21
48.100001192092904
31
0
0
LWPOLYLINE
5
149
100
AcDbEntity
8
0
100
AcDbPolyline
90
4
70
1
43
0.0
10
65.100000700354585
20
48.100001192092904
10
65.100000700354585
20
61.900001192092901
10
78.900000700354582
20
48.100001192092904
10
78.900000700354582
20
61.900001192092901
0
LINE
5
150
100
AcDbEntity
8
0
100
AcDbLine
10
78.900000700354582
20
61.900001192092901
30
0
11
65.100000700354585
21
61.900001192092901
31
0
0
LINE
5
151
100
AcDbEntity
8
0
100
AcDbLine
10
65.100000700354585
20
48.100001192092904
30
0
11
78.900000700354582
21
61.900001192092901
31
0
0
LINE
5
152
100
AcDbEntity
8
0
100
AcDbLine
10
78.900000700354582
20
48.100001192092904
30
0
11
65.100000700354585
21
48.100001192092904
31
0
0
LWPOLYLINE
5
153
100
AcDbEntity
8
0
100
AcDbPolyline
90
3
70
1
43
0.0
10
103.90000070035458
20
68.100001192092904
10
90.100000700354585
20
68.100001192092904
10
90.100000700354585
20
81.900001192092901
0
LINE
5
154
100
AcDbEntity
8
0
100
AcDbLine
10
103.90000070035458
20
81.900001192092901
30
0
11
103.90000070035458
21
68.100001192092904
31
0
0
LWPOLYLINE
5
155
100
AcDbEntity
8
0
100
AcDbPolyline
90
4
70
1
43
0.0
10
90.100000700354585
20
68.100001192092904
10
90.100000700354585
20
81.900001192092901
10
103.90000070035458
20
68.100001192092904
10
103.90000070035458
20
81.900001192092901
0
LINE
5
156
100
AcDbEntity
8
0
100
AcDbLine
10
103.90000070035458
20
81.900001192092901
30
0
11
90.100000700354585
21
81.900001192092901
31
0
0
LINE
5
157
100
AcDbEntity
8
0
100
AcDbLine
10
90.100000700354585
20
68.100001192092904
30
0
11
103.90000070035458
21
81.900001192092901
31
0
0
LINE
5
158
100
AcDbEntity
8
0
100
AcDbLine
10
103.90000070035458
20
68.100001192092904
30
0
11
90.100000700354585
21
68.100001192092904
31
0
0
LWPOLYLINE
5
159
100
AcDbEntity
8
0
100
AcDbPolyline
90
3
70
1
43
0.0
10
103.90000070035458
20
42.100001192092904
10
90.100000700354585
20
42.100001192092904
10
90.100000700354585
20
55.900001192092901
0
LINE
5
160
100
AcDbEntity
8
0
100
AcDbLine
10
103.90000070035458
20
55.900001192092901
30
0
11
103.90000070035458
21
42.100001192092904
31
0
0
LWPOLYLINE
5
161
100
AcDbEntity
8
0
100
AcDbPolyline
90
4
70
1
43
0.0
10
90.100000700354585
20
42.100001192092904
10
90.100000700354585
20
55.900001192092901
10
103.90000070035458
20
42.100001192092904
10
103.90000070035458
20
55.900001192092901
0
LINE
5
162
100
AcDbEntity
8
0
100
AcDbLine
10
103.90000070035458
20
55.900001192092901
30
0
11
90.100000700354585
21
55.900001192092901
31
0
0
LINE
5
163
100
AcDbEntity
8
0
100
AcDbLine
10
90.100000700354585
20
42.100001192092904
30
0
11
103.90000070035458
21
55.900001192092901
31
0
0
LINE
5
164
100
AcDbEntity
8
0
100
AcDbLine
10
103.90000070035458
20
42.100001192092904
30
0
11
90.100000700354585
21
42.100001192092904
31
0
0
LWPOLYLINE
5
165
100
AcDbEntity
8
0
100
AcDbPolyline
90
3
70
1
43
0.0
10
128.90000070035458
20
61.100001192092897
10
115.10000070035458
20
61.100001192092897
10
115.10000070035458
20
74.900001192092901
0
LINE
5
166
100
AcDbEntity
8
0
100
AcDbLine
10
128.90000070035458
20
74.900001192092901
30
0
11
128.90000070035458
21
61.100001192092897
31
0
0
LWPOLYLINE
5
167
100
AcDbEntity
8
0
100
AcDbPolyline
90
4
70
1
43
0.0
10
115.10000070035458
20
61.100001192092897
10
115.10000070035458
20
74.900001192092901
10
128.90000070035458
20
61.100001192092897
10
128.90000070035458
20
74.900001192092901
0
LINE
5
168
100
AcDbEntity
8
0
100
AcDbLine
10
128.90000070035458
20
74.900001192092901
30
0
11
115.10000070035458
21
74.900001192092901
31
0
0
LINE
5
169
100
AcDbEntity
8
0
100
AcDbLine
10
115.10000070035458
20
61.100001192092897
30
0
11
128.90000070035458
21
74.900001192092901
31
0
0
LINE
5
170
100
AcDbEntity
8
0
100
AcDbLine
10
128.90000070035458
20
61.100001192092897
30
0
11
115.10000070035458
21
61.100001192092897
31
0
0
LWPOLYLINE
5
171
100
AcDbEntity
8
0
100
AcDbPolyline
90
3
70
1
43
0.0
10
128.90000070035458
20
36.100001192092897
10
115.10000070035458
20
36.100001192092897
10
115.10000070035458
20
49.900001192092901
0
LINE
5
172
100
AcDbEntity
8
0
100
AcDbLine
10
128.90000070035458
20
49.900001192092901
30
0
11
128.90000070035458
21
36.100001192092897
31
0
0
LWPOLYLINE
5
173
100
AcDbEntity
8
0
100
AcDbPolyline
90
4
70
1
43
0.0
10
115.10000070035458
20
36.100001192092897
10
115.10000070035458
20
49.900001192092901
10
128.90000070035458
20
36.100001192092897
10
128.90000070035458
20
49.900001192092901
0
LINE
5
174
100
AcDbEntity
8
0
100
AcDbLine
10
128.90000070035458
20
49.900001192092901
30
0
11
115.10000070035458
21
49.900001192092901
31
0
0
LINE
5
175
100
AcDbEntity
8
0
100
AcDbLine
10
115.10000070035458
20
36.100001192092897
30
0
11
128.90000070035458
21
49.900001192092901
31
0
0
LINE
5
176
100
AcDbEntity
8
0
100
AcDbLine
10
128.90000070035458
20
36.100001192092897
30
0
11
115.10000070035458
21
36.100001192092897
31
0
0
LWPOLYLINE
5
177
100
AcDbEntity
8
0
100
AcDbPolyline
90
3
70
1
43
0.0
10
36.900000700354582
20
13.1000011920929
10
23.100000700354578
20
13.1000011920929
10
23.100000700354578
20
26.900001192092901
0
LINE
5
178
100
AcDbEntity
8
0
100
AcDbLine
10
36.900000700354582
20
26.900001192092901
30
0
11
36.900000700354582
21
13.1000011920929
31
0
0
LWPOLYLINE
5
179
100
AcDbEntity
8
0
100
AcDbPolyline
90
4
70
1
43
0.0
10
23.100000700354578
20
13.1000011920929
10
23.100000700354578
20
26.900001192092901
10
36.900000700354582
20
13.1000011920929
10
36.900000700354582
20
26.900001192092901
0
LINE
5
180
100
AcDbEntity
8
0
100
AcDbLine
10
36.900000700354582
20
26.900001192092901
30
0
11
23.100000700354578
21
26.900001192092901
31
0
0
LINE
5
181
100
AcDbEntity
8
0
100
AcDbLine
10
23.100000700354578
20
13.1000011920929
30
0
11
36.900000700354582
21
26.900001192092901
31
0
0
LINE
5
182
100
AcDbEntity
8
0
100
AcDbLine
10
36.900000700354582
20
13.1000011920929
30
0
11
23.100000700354578
21
13.1000011920929
31
0
0
ENDSEC
0
SECTION
2
OBJECTS
0
DICTIONARY
5
C
100
AcDbDictionary
3
ACAD_GROUP
350
D
3
ACAD_MLINESTYLE
350
17
0
DICTIONARY
5
D
100
AcDbDictionary
0
DICTIONARY
5
1A
330
C
100
AcDbDictionary
0
DICTIONARY
5
17
100
AcDbDictionary
0
ENDSEC
0
EOF
